<mxfile host="app.diagrams.net" agent="Mozilla/5.0 (Windows NT 10.0; Win64; x64) AppleWebKit/537.36 (KHTML, like Gecko) Chrome/126.0.0.0 Safari/537.36" version="25.0.1">
  <diagram name="Page-1" id="1GjcOSQzm1D7fcgj7CT3">
    <mxGraphModel dx="645" dy="340" grid="1" gridSize="10" guides="1" tooltips="1" connect="1" arrows="1" fold="1" page="1" pageScale="1" pageWidth="1100" pageHeight="1700" math="0" shadow="0">
      <root>
        <mxCell id="0" />
        <mxCell id="1" parent="0" />
        <mxCell id="UmaBke9xIjh7v9-IDTWi-1" value="&lt;font style=&quot;font-size: 24px;&quot;&gt;&lt;b&gt;SEQUENCE DIAGRAM&lt;/b&gt;&lt;/font&gt;" style="rounded=1;whiteSpace=wrap;html=1;fillColor=#f8cecc;strokeColor=#b85450;" vertex="1" parent="1">
          <mxGeometry x="310" y="20" width="470" height="70" as="geometry" />
        </mxCell>
        <mxCell id="UmaBke9xIjh7v9-IDTWi-2" value="" style="shape=process;whiteSpace=wrap;html=1;backgroundOutline=1;size=0.06250000000000036;" vertex="1" parent="1">
          <mxGeometry x="178" y="226" width="640" height="450" as="geometry" />
        </mxCell>
        <mxCell id="UmaBke9xIjh7v9-IDTWi-3" value="" style="rounded=0;whiteSpace=wrap;html=1;" vertex="1" parent="1">
          <mxGeometry x="950" y="226" width="40" height="450" as="geometry" />
        </mxCell>
        <mxCell id="UmaBke9xIjh7v9-IDTWi-4" value="&lt;font style=&quot;font-size: 14px;&quot;&gt;&lt;b&gt;Customer&lt;/b&gt;&lt;/font&gt;" style="rounded=1;whiteSpace=wrap;html=1;fillColor=#dae8fc;strokeColor=#6c8ebf;" vertex="1" parent="1">
          <mxGeometry x="158" y="121" width="120" height="60" as="geometry" />
        </mxCell>
        <mxCell id="UmaBke9xIjh7v9-IDTWi-6" value="" style="endArrow=none;dashed=1;html=1;rounded=0;" edge="1" parent="1">
          <mxGeometry width="50" height="50" relative="1" as="geometry">
            <mxPoint x="218" y="226" as="sourcePoint" />
            <mxPoint x="218" y="180" as="targetPoint" />
          </mxGeometry>
        </mxCell>
        <mxCell id="UmaBke9xIjh7v9-IDTWi-8" value="&lt;font style=&quot;font-size: 14px;&quot;&gt;&lt;b&gt;Website&lt;/b&gt;&lt;/font&gt;" style="rounded=1;whiteSpace=wrap;html=1;fillColor=#ffe6cc;strokeColor=#d79b00;" vertex="1" parent="1">
          <mxGeometry x="718" y="121" width="120" height="60" as="geometry" />
        </mxCell>
        <mxCell id="UmaBke9xIjh7v9-IDTWi-9" value="" style="endArrow=none;dashed=1;html=1;rounded=0;" edge="1" parent="1">
          <mxGeometry width="50" height="50" relative="1" as="geometry">
            <mxPoint x="778" y="226" as="sourcePoint" />
            <mxPoint x="778" y="180" as="targetPoint" />
          </mxGeometry>
        </mxCell>
        <mxCell id="UmaBke9xIjh7v9-IDTWi-10" value="&lt;font style=&quot;font-size: 14px;&quot;&gt;&lt;b&gt;Server&lt;/b&gt;&lt;/font&gt;" style="rounded=1;whiteSpace=wrap;html=1;fillColor=#d5e8d4;strokeColor=#82b366;" vertex="1" parent="1">
          <mxGeometry x="910" y="121" width="120" height="60" as="geometry" />
        </mxCell>
        <mxCell id="UmaBke9xIjh7v9-IDTWi-11" value="" style="endArrow=none;dashed=1;html=1;rounded=0;" edge="1" parent="1">
          <mxGeometry width="50" height="50" relative="1" as="geometry">
            <mxPoint x="970.44" y="226" as="sourcePoint" />
            <mxPoint x="970.44" y="180" as="targetPoint" />
          </mxGeometry>
        </mxCell>
        <mxCell id="UmaBke9xIjh7v9-IDTWi-12" value="" style="endArrow=classic;html=1;rounded=0;strokeWidth=3;" edge="1" parent="1">
          <mxGeometry relative="1" as="geometry">
            <mxPoint x="218" y="226" as="sourcePoint" />
            <mxPoint x="778" y="226" as="targetPoint" />
          </mxGeometry>
        </mxCell>
        <mxCell id="UmaBke9xIjh7v9-IDTWi-13" value="&lt;font&gt;&lt;b&gt;Signup/ Login&lt;/b&gt;&lt;/font&gt;" style="edgeLabel;resizable=0;html=1;;align=center;verticalAlign=middle;fontSize=20;" connectable="0" vertex="1" parent="UmaBke9xIjh7v9-IDTWi-12">
          <mxGeometry relative="1" as="geometry" />
        </mxCell>
      </root>
    </mxGraphModel>
  </diagram>
</mxfile>
